<?xml version="1.0" encoding="utf-8"?>
<!-- Generator: Adobe Illustrator 23.0.3, SVG Export Plug-In . SVG Version: 6.00 Build 0)  -->
<svg version="1.1" id="Layer_1" xmlns="http://www.w3.org/2000/svg" xmlns:xlink="http://www.w3.org/1999/xlink" x="0px" y="0px"
	 viewBox="0 0 834 625" style="enable-background:new 0 0 834 625;" xml:space="preserve">
<style type="text/css">
	.st0{opacity:0.25;}
	.st1{opacity:0.5;}
</style>
<g class="st0">
	<path d="M275.09,312.79c0-97.24,24.59-173.7,73.76-229.38S466.38-0.12,553.92-0.12c89.48,0,158.53,27.36,207.15,82.07
		S834,213.89,834,313.62c0,98.9-24.38,175.57-73.14,230.01c-48.76,54.44-118.02,81.66-207.77,81.66
		c-87.26,0-155.41-27.7-204.45-83.11C299.61,486.76,275.09,410.3,275.09,312.79z M759.2,312.79c0-82.28-17.52-144.68-52.57-187.2
		S620.69,61.8,553.92,61.8c-67.32,0-118.15,21.19-152.51,63.58s-51.53,104.86-51.53,187.41c0,81.72,17.11,143.71,51.32,185.96
		s84.84,63.37,151.88,63.37c67.32,0,118.5-21.26,153.54-63.79S759.2,393.96,759.2,312.79z"/>
</g>
<g class="st1">
	<path d="M137.76,312.79c0-97.24,24.59-173.7,73.76-229.38S329.05-0.12,416.59-0.12c89.48,0,158.53,27.36,207.15,82.07
		s72.93,131.94,72.93,231.67c0,98.9-24.38,175.57-73.14,230.01c-48.76,54.44-118.02,81.66-207.77,81.66
		c-87.26,0-155.41-27.7-204.45-83.11C162.28,486.76,137.76,410.3,137.76,312.79z M621.87,312.79c0-82.28-17.52-144.68-52.57-187.2
		S483.36,61.8,416.59,61.8c-67.32,0-118.15,21.19-152.51,63.58c-34.35,42.39-51.53,104.86-51.53,187.41
		c0,81.72,17.11,143.71,51.32,185.96s84.84,63.37,151.88,63.37c67.32,0,118.5-21.26,153.54-63.79S621.87,393.96,621.87,312.79z"/>
</g>
<g>
	<path d="M0.43,312.79c0-97.24,24.59-173.7,73.76-229.38S191.73-0.12,279.27-0.12c89.48,0,158.53,27.36,207.15,82.07
		s72.93,131.94,72.93,231.67c0,98.9-24.38,175.57-73.14,230.01c-48.76,54.44-118.02,81.66-207.77,81.66
		c-87.26,0-155.41-27.7-204.45-83.11C24.95,486.76,0.43,410.3,0.43,312.79z M484.55,312.79c0-82.28-17.52-144.68-52.57-187.2
		S346.03,61.8,279.27,61.8c-67.32,0-118.15,21.19-152.51,63.58S75.23,230.23,75.23,312.79c0,81.72,17.11,143.71,51.32,185.96
		s84.84,63.37,151.88,63.37c67.32,0,118.5-21.26,153.54-63.79S484.55,393.96,484.55,312.79z"/>
</g>
</svg>
