<?xml version="1.0" encoding="utf-8"?>
<!-- Generator: Adobe Illustrator 23.0.3, SVG Export Plug-In . SVG Version: 6.00 Build 0)  -->
<svg version="1.1" id="Layer_1" xmlns="http://www.w3.org/2000/svg" xmlns:xlink="http://www.w3.org/1999/xlink" x="0px" y="0px"
	 viewBox="0 0 1095 127" style="enable-background:new 0 0 1095 127;" xml:space="preserve">
<style type="text/css">
	.st0{opacity:0.25;}
	.st1{opacity:0.5;}
</style>
<g class="st0">
	<path d="M522.27,63.64c0-19.87,5.02-35.49,15.07-46.86s24.01-17.06,41.9-17.06c18.28,0,32.39,5.59,42.32,16.77
		c9.93,11.18,14.9,26.96,14.9,47.33c0,20.21-4.98,35.87-14.94,46.99s-24.11,16.68-42.45,16.68c-17.83,0-31.75-5.66-41.77-16.98
		C527.28,99.18,522.27,83.56,522.27,63.64z M621.18,63.64c0-16.81-3.58-29.56-10.74-38.25c-7.16-8.69-17.56-13.03-31.2-13.03
		c-13.75,0-24.14,4.33-31.16,12.99c-7.02,8.66-10.53,21.42-10.53,38.29c0,16.7,3.49,29.36,10.48,37.99s17.33,12.95,31.03,12.95
		c13.75,0,24.21-4.34,31.37-13.03C617.6,92.85,621.18,80.22,621.18,63.64z"/>
</g>
<g class="st1">
	<path d="M494.21,63.64c0-19.87,5.02-35.49,15.07-46.86s24.01-17.06,41.9-17.06c18.28,0,32.39,5.59,42.32,16.77
		c9.93,11.18,14.9,26.96,14.9,47.33c0,20.21-4.98,35.87-14.94,46.99s-24.11,16.68-42.45,16.68c-17.83,0-31.75-5.66-41.77-16.98
		C499.22,99.18,494.21,83.56,494.21,63.64z M593.12,63.64c0-16.81-3.58-29.56-10.74-38.25c-7.16-8.69-17.56-13.03-31.2-13.03
		c-13.75,0-24.14,4.33-31.16,12.99c-7.02,8.66-10.53,21.42-10.53,38.29c0,16.7,3.49,29.36,10.48,37.99s17.33,12.95,31.03,12.95
		c13.75,0,24.21-4.34,31.37-13.03C589.54,92.85,593.12,80.22,593.12,63.64z"/>
</g>
<g>
	<path d="M466.16,63.64c0-19.87,5.02-35.49,15.07-46.86c10.05-11.38,24.01-17.06,41.9-17.06c18.28,0,32.39,5.59,42.32,16.77
		s14.9,26.96,14.9,47.33c0,20.21-4.98,35.87-14.94,46.99c-9.96,11.12-24.11,16.68-42.45,16.68c-17.83,0-31.75-5.66-41.77-16.98
		C471.17,99.18,466.16,83.56,466.16,63.64z M565.06,63.64c0-16.81-3.58-29.56-10.74-38.25s-17.56-13.03-31.2-13.03
		c-13.75,0-24.14,4.33-31.16,12.99c-7.02,8.66-10.53,21.42-10.53,38.29c0,16.7,3.49,29.36,10.48,37.99
		c6.99,8.63,17.33,12.95,31.03,12.95c13.75,0,24.21-4.34,31.37-13.03S565.06,80.22,565.06,63.64z"/>
</g>
<g>
	<path d="M59.44,12.7c-13.64,0-24.41,4.54-32.3,13.63S15.3,47.84,15.3,63.64c0,16.24,3.81,28.79,11.42,37.65
		s18.47,13.29,32.56,13.29c8.66,0,18.54-1.56,29.63-4.67v12.65c-8.6,3.23-19.22,4.84-31.84,4.84c-18.28,0-32.39-5.55-42.32-16.64
		S-0.15,83.9-0.15,63.47c0-12.79,2.39-24,7.17-33.62S18.71,12.81,27.73,7.6s19.65-7.81,31.88-7.81c13.02,0,24.39,2.38,34.13,7.13
		l-6.11,12.4C78.24,14.9,68.84,12.7,59.44,12.7z"/>
</g>
<g>
	<path d="M261,125.65V1.53h14.43v111.05h54.76v13.07H261z"/>
</g>
<g>
	<path d="M847.46,125.65h-16.47L763.16,21.48h-0.68c0.91,12.23,1.36,23.43,1.36,33.62v70.55h-13.33V1.53h16.3l67.66,103.75h0.68
		c-0.11-1.53-0.37-6.44-0.76-14.73s-0.54-14.22-0.42-17.79V1.53h13.5V125.65z"/>
</g>
<g>
	<path d="M1095,125.65h-69.19V1.53H1095v12.82h-54.76v39.99h51.45v12.73h-51.45v45.68H1095V125.65z"/>
</g>
</svg>
