<?xml version="1.0" encoding="utf-8"?>
<!-- Generator: Adobe Illustrator 23.0.2, SVG Export Plug-In . SVG Version: 6.00 Build 0)  -->
<svg version="1.1" id="Layer_1" xmlns="http://www.w3.org/2000/svg" xmlns:xlink="http://www.w3.org/1999/xlink" x="0px" y="0px"
	 viewBox="0 0 620 70" style="enable-background:new 0 0 620 70;" xml:space="preserve">
<style type="text/css">
	.st0{fill:#FFFFFF;}
</style>
<g>
	<g>
		<path class="st0" d="M32.8,7.4c-7.4,0-13.3,2.5-17.6,7.4S8.7,26.6,8.7,35.2c0,8.8,2.1,15.7,6.2,20.5s10.1,7.2,17.7,7.2
			c4.7,0,10.1-0.8,16.1-2.5v6.9c-4.7,1.8-10.5,2.6-17.3,2.6c-10,0-17.6-3-23-9.1S0.3,46.2,0.3,35.1c0-7,1.3-13.1,3.9-18.3
			s6.4-9.3,11.3-12.1s10.7-4.3,17.4-4.3c7.1,0,13.3,1.3,18.6,3.9L48.1,11C43,8.6,37.9,7.4,32.8,7.4z"/>
	</g>
	<g>
		<path class="st0" d="M137.1,69V1.4h7.9v60.5h29.8V69H137.1z"/>
	</g>
	<g>
		<path class="st0" d="M481.8,69h-9l-36.9-56.7h-0.4c0.5,6.7,0.7,12.8,0.7,18.3V69H429V1.4h8.9l36.8,56.5h0.4
			c-0.1-0.8-0.2-3.5-0.4-8c-0.2-4.5-0.3-7.7-0.2-9.7V1.4h7.4L481.8,69L481.8,69z"/>
	</g>
	<g>
		<path class="st0" d="M620,69h-37.7V1.4H620v7h-29.8v21.8h28v6.9h-28V62H620V69z"/>
	</g>
	<path class="st0" d="M328.4,69.7c-11,0-21.2-5.9-26.6-15.4c-6,9.6-16,15.3-26.6,15.4l0,0c-10.6,0-18.3-3.1-23.5-9.2
		C246.6,54.6,244,46,244,35s2.7-19.5,7.9-25.5c5.4-6.1,13.2-9.2,23.2-9.2c11,0,21.2,5.9,26.6,15.4c6-9.6,16-15.3,26.6-15.4l0,0
		c10.6,0,18.3,3.1,23.5,9.2c5.1,5.9,7.7,14.5,7.7,25.5s-2.7,19.5-7.9,25.5C346.2,66.6,338.4,69.7,328.4,69.7z M301.6,46.3
		C301.6,46.3,301.7,46.3,301.6,46.3c2.9,0,5.5,1.5,7,4c4.1,7.1,11.7,11.5,19.8,11.5c7.7,0,13.3-2.1,17.2-6.5
		c3.9-4.5,5.9-11.3,5.9-20.3c0-9.1-1.9-15.9-5.8-20.4l0,0c-3.7-4.3-9.3-6.5-17-6.5c-8.4,0.1-15.8,4.3-19.8,11.1
		c-1.8,3-4.3,4.4-7.2,4.4c0,0,0,0-0.1,0c-2.9,0-5.5-1.5-6.9-4c-4.1-7.1-11.7-11.5-19.8-11.5c-7.7,0-13.3,2.1-17.2,6.5
		c-3.9,4.5-5.9,11.3-5.9,20.3c0,9.1,1.9,15.9,5.8,20.4c3.7,4.3,9.3,6.5,17,6.5c8.4-0.1,15.8-4.3,19.8-11.1
		C296.2,47.8,298.8,46.3,301.6,46.3z"/>
</g>
</svg>
