<?xml version="1.0" encoding="utf-8"?>
<!-- Generator: Adobe Illustrator 23.0.3, SVG Export Plug-In . SVG Version: 6.00 Build 0)  -->
<svg version="1.1" id="Layer_1" xmlns="http://www.w3.org/2000/svg" xmlns:xlink="http://www.w3.org/1999/xlink" x="0px" y="0px"
	 viewBox="0 0 1095 127" style="enable-background:new 0 0 1095 127;" xml:space="preserve">
<style type="text/css">
	.st0{opacity:0.25;}
	.st1{fill:#F7AF5B;}
	.st2{opacity:0.5;}
	.st3{fill:#F47953;}
	.st4{fill:#F14948;}
	.st5{fill:#FFFFFF;}
</style>
<g class="st0">
	<path class="st1" d="M522.3,63.6c0-19.9,5-35.5,15.1-46.9s24-17.1,41.9-17.1c18.3,0,32.4,5.6,42.3,16.8s14.9,27,14.9,47.3
		c0,20.2-5,35.9-14.9,47s-24.1,16.7-42.5,16.7c-17.8,0-31.8-5.7-41.8-17C527.3,99.2,522.3,83.6,522.3,63.6z M621.2,63.6
		c0-16.8-3.6-29.6-10.7-38.3s-17.6-13-31.2-13c-13.8,0-24.1,4.3-31.2,13c-7,8.7-10.5,21.4-10.5,38.3c0,16.7,3.5,29.4,10.5,38
		s17.3,12.9,31,12.9c13.8,0,24.2-4.3,31.4-13C617.6,92.8,621.2,80.2,621.2,63.6z"/>
</g>
<g class="st2">
	<path class="st3" d="M494.2,63.6c0-19.9,5-35.5,15.1-46.9s24-17.1,41.9-17.1c18.3,0,32.4,5.6,42.3,16.8s14.9,27,14.9,47.3
		c0,20.2-5,35.9-14.9,47s-24.1,16.7-42.5,16.7c-17.8,0-31.8-5.7-41.8-17C499.2,99.2,494.2,83.6,494.2,63.6z M593.1,63.6
		c0-16.8-3.6-29.6-10.7-38.3s-17.6-13-31.2-13c-13.8,0-24.1,4.3-31.2,13c-7,8.7-10.5,21.4-10.5,38.3c0,16.7,3.5,29.4,10.5,38
		s17.3,12.9,31,12.9c13.8,0,24.2-4.3,31.4-13C589.5,92.8,593.1,80.2,593.1,63.6z"/>
</g>
<g>
	<path class="st4" d="M466.2,63.6c0-19.9,5-35.5,15.1-46.9c10-11.4,24-17.1,41.9-17.1c18.3,0,32.4,5.6,42.3,16.8s14.9,27,14.9,47.3
		c0,20.2-5,35.9-14.9,47s-24.1,16.7-42.5,16.7c-17.8,0-31.8-5.7-41.8-17C471.2,99.2,466.2,83.6,466.2,63.6z M565.1,63.6
		c0-16.8-3.6-29.6-10.7-38.3s-17.6-13-31.2-13c-13.8,0-24.1,4.3-31.2,13s-10.5,21.4-10.5,38.3c0,16.7,3.5,29.4,10.5,38
		c7,8.6,17.3,12.9,31,12.9c13.8,0,24.2-4.3,31.4-13S565.1,80.2,565.1,63.6z"/>
</g>
<g>
	<path class="st5" d="M59.4,12.7c-13.6,0-24.4,4.5-32.3,13.6S15.3,47.8,15.3,63.6c0,16.2,3.8,28.8,11.4,37.7s18.5,13.3,32.6,13.3
		c8.7,0,18.5-1.6,29.6-4.7v12.7c-8.6,3.2-19.2,4.8-31.8,4.8c-18.3,0-32.4-5.6-42.3-16.6S-0.2,83.9-0.2,63.5c0-12.8,2.4-24,7.2-33.6
		s11.7-17,20.7-22.3s19.6-7.8,31.9-7.8c13,0,24.4,2.4,34.1,7.1l-6.1,12.4C78.2,14.9,68.8,12.7,59.4,12.7z"/>
</g>
<g>
	<path class="st5" d="M261,125.7V1.5h14.4v111.1h54.8v13.1H261z"/>
</g>
<g>
	<path class="st5" d="M847.5,125.7H831L763.2,21.5h-0.7c0.9,12.2,1.4,23.4,1.4,33.6v70.6h-13.3V1.5h16.3l67.7,103.8h0.7
		c-0.1-1.5-0.4-6.4-0.8-14.7s-0.5-14.2-0.4-17.8V1.5h13.5L847.5,125.7L847.5,125.7z"/>
</g>
<g>
	<path class="st5" d="M1095,125.7h-69.2V1.5h69.2v12.8h-54.8v40h51.4v12.7h-51.4v45.7h54.8V125.7z"/>
</g>
</svg>
