<?xml version="1.0" encoding="utf-8"?>
<!-- Generator: Adobe Illustrator 23.0.3, SVG Export Plug-In . SVG Version: 6.00 Build 0)  -->
<svg version="1.1" id="Layer_1" xmlns="http://www.w3.org/2000/svg" xmlns:xlink="http://www.w3.org/1999/xlink" x="0px" y="0px"
	 viewBox="0 0 997.1 111" style="enable-background:new 0 0 997.1 111;" xml:space="preserve">
<style type="text/css">
	.st0{fill:#FFFFFF;}
</style>
<g>
	<path class="st0" d="M50.9,12c-11.6,0-20.8,3.9-27.6,11.6S13.2,42.1,13.2,55.5c0,13.9,3.3,24.6,9.8,32.2C29.4,95.3,38.7,99,50.8,99
		c7.4,0,15.8-1.3,25.3-4v10.8c-7.3,2.8-16.4,4.1-27.2,4.1c-15.6,0-27.7-4.7-36.1-14.2S0,72.8,0,55.4c0-10.9,2-20.5,6.1-28.7
		s10-14.5,17.7-19S40.6,1,51,1c11.1,0,20.8,2,29.1,6.1L75,17.7C66.9,13.9,58.9,12,50.9,12z"/>
</g>
<g>
	<path class="st0" d="M235.4,108.5V2.5h12.3v94.8h46.8v11.2H235.4z"/>
</g>
<g>
	<path class="st0" d="M785.7,108.5h-14.1l-57.9-89h-0.6c0.8,10.4,1.2,20,1.2,28.7v60.2h-11.4V2.5h13.9l57.8,88.6h0.6
		c-0.1-1.3-0.3-5.5-0.7-12.6c-0.3-7.1-0.5-12.1-0.4-15.2V2.5h11.5V108.5z"/>
</g>
<g>
	<path class="st0" d="M997.1,108.5H938V2.5h59.1v10.9h-46.8v34.1h43.9v10.9h-43.9v39h46.8V108.5z"/>
</g>
<path class="st0" d="M528.4,111c-10.5,0-19.5-2.4-26.9-7.2c-7.4,4.8-16.4,7.2-26.9,7.2c-30.2,0-48.3-20.7-48.3-55.5
	c0-35.8,17.1-55.5,48.3-55.5c10.5,0,19.6,2.3,26.9,6.8c7.3-4.5,16.3-6.8,26.9-6.8c31.1,0,48.3,19.7,48.3,55.5
	C576.7,90.3,558.6,111,528.4,111z M501.5,88l4,3.3c5.8,4.8,13.5,7.3,22.9,7.3c29.7,0,35.9-23.5,35.9-43.1c0-29-11.7-43.1-35.9-43.1
	c-9.6,0-17.4,2.3-23,6.8l-3.9,3.1l-3.9-3.1c-5.7-4.5-13.4-6.8-23-6.8c-24.2,0-35.9,14.1-35.9,43.1c0,19.7,6.2,43.1,35.9,43.1
	c9.4,0,17.1-2.5,22.9-7.3L501.5,88z"/>
<path class="st0" d="M528.4,111c-10.5,0-19.5-2.4-26.9-7.2c-7.4,4.8-16.4,7.2-26.9,7.2c-30.2,0-48.3-20.7-48.3-55.5
	c0-35.8,17.1-55.5,48.3-55.5c10.5,0,19.6,2.3,26.9,6.8c7.3-4.5,16.3-6.8,26.9-6.8c31.1,0,48.3,19.7,48.3,55.5
	C576.7,90.3,558.6,111,528.4,111z M501.5,88l4,3.3c5.8,4.8,13.5,7.3,22.9,7.3c29.7,0,35.9-23.5,35.9-43.1c0-29-11.7-43.1-35.9-43.1
	c-9.6,0-17.4,2.3-23,6.8l-3.9,3.1l-3.9-3.1c-5.7-4.5-13.4-6.8-23-6.8c-24.2,0-35.9,14.1-35.9,43.1c0,19.7,6.2,43.1,35.9,43.1
	c9.4,0,17.1-2.5,22.9-7.3L501.5,88z"/>
<path class="st0" d="M501.5,75.8c-3.4,0-6.2-2.8-6.2-6.2V41.4c0-3.4,2.8-6.2,6.2-6.2c3.4,0,6.2,2.8,6.2,6.2v28.2
	C507.7,73,504.9,75.8,501.5,75.8z"/>
</svg>
