<?xml version="1.0" encoding="utf-8"?>
<!-- Generator: Adobe Illustrator 23.0.2, SVG Export Plug-In . SVG Version: 6.00 Build 0)  -->
<svg version="1.1" id="Layer_1" xmlns="http://www.w3.org/2000/svg" xmlns:xlink="http://www.w3.org/1999/xlink" x="0px" y="0px"
	 viewBox="0 0 1000 111" style="enable-background:new 0 0 1000 111;" xml:space="preserve">
<style type="text/css">
	.st0{fill:#FFFFFF;}
</style>
<g>
	<path class="st0" d="M51.3,12.1c-11.7,0-20.9,3.9-27.7,11.7S13.5,42.2,13.5,55.7c0,13.9,3.3,24.7,9.8,32.2
		c6.5,7.6,15.8,11.4,27.9,11.4c7.4,0,15.9-1.3,25.4-4v10.8c-7.4,2.8-16.5,4.1-27.3,4.1c-15.7,0-27.7-4.7-36.2-14.2
		S0.3,73.1,0.3,55.6c0-11,2-20.5,6.1-28.8s10-14.6,17.7-19S41,1,51.4,1c11.1,0,20.9,2,29.2,6.1l-5.2,10.6
		C67.4,14,59.3,12.1,51.3,12.1z"/>
</g>
<g>
	<path class="st0" d="M236.3,108.8V2.5h12.4v95.1h46.9v11.2H236.3z"/>
</g>
<g>
	<path class="st0" d="M788.1,108.8H774l-58.1-89.2h-0.6c0.8,10.5,1.2,20.1,1.2,28.8v60.4H705V2.5h14l57.9,88.8h0.6
		c-0.1-1.3-0.3-5.5-0.7-12.6c-0.3-7.1-0.5-12.2-0.4-15.2v-61h11.6V108.8z"/>
</g>
<g>
	<path class="st0" d="M1000,108.8h-59.2V2.5h59.2v11h-46.9v34.2h44.1v10.9h-44.1v39.1h46.9V108.8z"/>
</g>
<path class="st0" d="M526.1,42.7c-3,0-5.7,1-7.8,2.7c-4.4,3.5-9.6,5.8-15.2,5.8h0c-5.6,0-10.8-2.4-15.2-5.8
	c-2.2-1.7-4.9-2.7-7.8-2.7c-7.1,0-12.9,5.8-12.9,12.9c0,7.1,5.8,12.9,12.9,12.9c3,0,5.7-1,7.8-2.7c4.4-3.5,9.6-5.8,15.2-5.8h0
	c5.6,0,10.8,2.4,15.2,5.8c2.2,1.7,4.9,2.7,7.8,2.7c7.1,0,12.9-5.8,12.9-12.9C539.1,48.5,533.3,42.7,526.1,42.7z"/>
<path class="st0" d="M530,111.3c-10.5,0-19.5-2.4-27-7.3c-7.4,4.8-16.5,7.3-27,7.3c-30.3,0-48.4-20.8-48.4-55.6
	c0-35.9,17.2-55.6,48.4-55.6c10.6,0,19.6,2.3,27,6.8c7.3-4.5,16.4-6.8,27-6.8c31.2,0,48.4,19.8,48.4,55.6
	C578.4,90.5,560.3,111.3,530,111.3z M503.1,88.3l4,3.3c5.8,4.8,13.5,7.3,23,7.3c29.8,0,36-23.5,36-43.2c0-29.1-11.8-43.2-36-43.2
	c-9.6,0-17.4,2.3-23.1,6.9l-3.9,3.1l-3.9-3.1c-5.7-4.5-13.5-6.9-23.1-6.9c-24.2,0-36,14.1-36,43.2c0,19.7,6.2,43.2,36,43.2
	c9.5,0,17.2-2.5,23-7.3L503.1,88.3z"/>
</svg>
