<?xml version="1.0" encoding="utf-8"?>
<!-- Generator: Adobe Illustrator 23.0.6, SVG Export Plug-In . SVG Version: 6.00 Build 0)  -->
<svg version="1.1" id="Layer_1" xmlns="http://www.w3.org/2000/svg" xmlns:xlink="http://www.w3.org/1999/xlink" x="0px" y="0px"
	 viewBox="0 0 1000 438" style="enable-background:new 0 0 1000 438;" xml:space="preserve">
<style type="text/css">
	.st0{fill:url(#SVGID_1_);}
</style>
<linearGradient id="SVGID_1_" gradientUnits="userSpaceOnUse" x1="149.7675" y1="569.1876" x2="850.3586" y2="-131.4035">
	<stop  offset="0" style="stop-color:#F14948"/>
	<stop  offset="1" style="stop-color:#F7AF5B"/>
</linearGradient>
<path class="st0" d="M969.1,0.1H732.8c-17,0-30.9,13.9-30.9,30.9v375.8c0,17,13.9,30.9,30.9,30.9h236.3c17,0,30.9-13.9,30.9-30.9V31
	C1000,14,986.1,0.1,969.1,0.1z M732.8,14.7h236.3c9,0,16.3,7.3,16.3,16.3v68H716.5V31C716.5,22,723.8,14.7,732.8,14.7z M937,423.1
	H764.8V180.5c0-10.2,8.3-18.6,18.6-18.6h135c10.2,0,18.6,8.3,18.6,18.6V423.1z M969.1,423.1h-17.5V180.5c0-18.3-14.9-33.2-33.2-33.2
	h-135c-18.3,0-33.2,14.9-33.2,33.2v242.6h-17.5c-9,0-16.3-7.3-16.3-16.3V113.6h268.9v293.2C985.4,415.8,978.1,423.1,969.1,423.1z
	 M922.4,67.7l10.3-10.3L922.4,47c-2.8-2.8-2.8-7.5,0-10.3c2.8-2.8,7.5-2.8,10.3,0L943,47.1l10.3-10.3c2.8-2.8,7.5-2.8,10.3,0
	c2.8,2.8,2.8,7.5,0,10.3l-10.3,10.3l10.3,10.3c2.8,2.8,2.8,7.5,0,10.3c-1.4,1.4-3.3,2.1-5.2,2.1c-1.9,0-3.7-0.7-5.2-2.1L943,67.7
	L932.7,78c-1.4,1.4-3.3,2.1-5.2,2.1c-1.9,0-3.7-0.7-5.2-2.1C919.5,75.2,919.5,70.6,922.4,67.7z M737.9,57.4c0-4,3.3-7.3,7.3-7.3
	h93.4c4,0,7.3,3.3,7.3,7.3s-3.3,7.3-7.3,7.3h-93.4C741.2,64.7,737.9,61.4,737.9,57.4z M593.5,0.1H31C14,0.1,0.1,14,0.1,31v375.8
	c0,17,13.9,30.9,30.9,30.9h562.4c17,0,30.9-13.9,30.9-30.9V31C624.4,14,610.5,0.1,593.5,0.1z M31,14.7h562.4c9,0,16.3,7.3,16.3,16.3
	v68H14.7V31C14.7,22,22,14.7,31,14.7z M536.2,423.1H88.3V199.7c0-20.8,16.9-37.7,37.7-37.7h372.5c20.8,0,37.7,16.9,37.7,37.7V423.1z
	 M593.5,423.1h-42.7V199.7c0-28.9-23.5-52.3-52.3-52.3H126c-28.9,0-52.3,23.5-52.3,52.3v223.4H31c-9,0-16.3-7.3-16.3-16.3V113.6
	h595.1v293.2C609.8,415.8,602.5,423.1,593.5,423.1z M535.9,67.7l10.3-10.3L535.9,47c-2.8-2.8-2.8-7.5,0-10.3c2.8-2.8,7.5-2.8,10.3,0
	l10.3,10.3l10.3-10.3c2.8-2.8,7.5-2.8,10.3,0c2.8,2.8,2.8,7.5,0,10.3l-10.3,10.3l10.3,10.3c2.8,2.8,2.8,7.5,0,10.3
	c-1.4,1.4-3.3,2.1-5.2,2.1c-1.9,0-3.7-0.7-5.2-2.1l-10.3-10.3L546.2,78c-1.4,1.4-3.3,2.1-5.2,2.1s-3.7-0.7-5.2-2.1
	C533,75.2,533,70.6,535.9,67.7z M48.5,57.4c0-4,3.3-7.3,7.3-7.3h331.8c4,0,7.3,3.3,7.3,7.3s-3.3,7.3-7.3,7.3H55.8
	C51.8,64.7,48.5,61.4,48.5,57.4z"/>
</svg>
